<svg width="223" height="77" viewBox="0 0 223 77" fill="none" xmlns="http://www.w3.org/2000/svg">
<g filter="url(#filter0_d)">
<path d="M137.21 23.08C138.41 23.46 139.35 24.1 140.03 25C140.71 25.88 141.05 26.97 141.05 28.27C141.05 30.11 140.33 31.53 138.89 32.53C137.47 33.51 135.39 34 132.65 34H121.79V13H132.05C134.61 13 136.57 13.49 137.93 14.47C139.31 15.45 140 16.78 140 18.46C140 19.48 139.75 20.39 139.25 21.19C138.77 21.99 138.09 22.62 137.21 23.08ZM126.62 16.66V21.61H131.45C132.65 21.61 133.56 21.4 134.18 20.98C134.8 20.56 135.11 19.94 135.11 19.12C135.11 18.3 134.8 17.69 134.18 17.29C133.56 16.87 132.65 16.66 131.45 16.66H126.62ZM132.29 30.34C133.57 30.34 134.53 30.13 135.17 29.71C135.83 29.29 136.16 28.64 136.16 27.76C136.16 26.02 134.87 25.15 132.29 25.15H126.62V30.34H132.29ZM148.047 17.86H152.727V34H148.047V17.86ZM150.387 15.61C149.527 15.61 148.827 15.36 148.287 14.86C147.747 14.36 147.477 13.74 147.477 13C147.477 12.26 147.747 11.64 148.287 11.14C148.827 10.64 149.527 10.39 150.387 10.39C151.247 10.39 151.947 10.63 152.487 11.11C153.027 11.59 153.297 12.19 153.297 12.91C153.297 13.69 153.027 14.34 152.487 14.86C151.947 15.36 151.247 15.61 150.387 15.61ZM160.719 11.74H165.399V34H160.719V11.74ZM173.39 11.74H178.07V34H173.39V11.74Z" fill="#474DBB"/>
<path d="M170.57 59.22C170.11 59.56 169.54 59.82 168.86 60C168.2 60.16 167.5 60.24 166.76 60.24C164.84 60.24 163.35 59.75 162.29 58.77C161.25 57.79 160.73 56.35 160.73 54.45V47.82H158.24V44.22H160.73V40.29H165.41V44.22H169.43V47.82H165.41V54.39C165.41 55.07 165.58 55.6 165.92 55.98C166.28 56.34 166.78 56.52 167.42 56.52C168.16 56.52 168.79 56.32 169.31 55.92L170.57 59.22ZM183.256 59.22C182.796 59.56 182.226 59.82 181.546 60C180.886 60.16 180.186 60.24 179.446 60.24C177.526 60.24 176.036 59.75 174.976 58.77C173.936 57.79 173.416 56.35 173.416 54.45V47.82H170.926V44.22H173.416V40.29H178.096V44.22H182.116V47.82H178.096V54.39C178.096 55.07 178.266 55.6 178.606 55.98C178.966 56.34 179.466 56.52 180.106 56.52C180.846 56.52 181.476 56.32 181.996 55.92L183.256 59.22ZM201.195 51.99C201.195 52.05 201.165 52.47 201.105 53.25H188.895C189.115 54.25 189.635 55.04 190.455 55.62C191.275 56.2 192.295 56.49 193.515 56.49C194.355 56.49 195.095 56.37 195.735 56.13C196.395 55.87 197.005 55.47 197.565 54.93L200.055 57.63C198.535 59.37 196.315 60.24 193.395 60.24C191.575 60.24 189.965 59.89 188.565 59.19C187.165 58.47 186.085 57.48 185.325 56.22C184.565 54.96 184.185 53.53 184.185 51.93C184.185 50.35 184.555 48.93 185.295 47.67C186.055 46.39 187.085 45.4 188.385 44.7C189.705 43.98 191.175 43.62 192.795 43.62C194.375 43.62 195.805 43.96 197.085 44.64C198.365 45.32 199.365 46.3 200.085 47.58C200.825 48.84 201.195 50.31 201.195 51.99ZM192.825 47.16C191.765 47.16 190.875 47.46 190.155 48.06C189.435 48.66 188.995 49.48 188.835 50.52H196.785C196.625 49.5 196.185 48.69 195.465 48.09C194.745 47.47 193.865 47.16 192.825 47.16ZM208.78 45.99C209.34 45.21 210.09 44.62 211.03 44.22C211.99 43.82 213.09 43.62 214.33 43.62V47.94C213.81 47.9 213.46 47.88 213.28 47.88C211.94 47.88 210.89 48.26 210.13 49.02C209.37 49.76 208.99 50.88 208.99 52.38V60H204.31V43.86H208.78V45.99Z" fill="#474DBB"/>
<path d="M104.39 60.36C102.73 60.36 101.12 60.14 99.56 59.7C98.02 59.24 96.78 58.65 95.84 57.93L97.49 54.27C98.39 54.93 99.46 55.46 100.7 55.86C101.94 56.26 103.18 56.46 104.42 56.46C105.8 56.46 106.82 56.26 107.48 55.86C108.14 55.44 108.47 54.89 108.47 54.21C108.47 53.71 108.27 53.3 107.87 52.98C107.49 52.64 106.99 52.37 106.37 52.17C105.77 51.97 104.95 51.75 103.91 51.51C102.31 51.13 101 50.75 99.98 50.37C98.96 49.99 98.08 49.38 97.34 48.54C96.62 47.7 96.26 46.58 96.26 45.18C96.26 43.96 96.59 42.86 97.25 41.88C97.91 40.88 98.9 40.09 100.22 39.51C101.56 38.93 103.19 38.64 105.11 38.64C106.45 38.64 107.76 38.8 109.04 39.12C110.32 39.44 111.44 39.9 112.4 40.5L110.9 44.19C108.96 43.09 107.02 42.54 105.08 42.54C103.72 42.54 102.71 42.76 102.05 43.2C101.41 43.64 101.09 44.22 101.09 44.94C101.09 45.66 101.46 46.2 102.2 46.56C102.96 46.9 104.11 47.24 105.65 47.58C107.25 47.96 108.56 48.34 109.58 48.72C110.6 49.1 111.47 49.7 112.19 50.52C112.93 51.34 113.3 52.45 113.3 53.85C113.3 55.05 112.96 56.15 112.28 57.15C111.62 58.13 110.62 58.91 109.28 59.49C107.94 60.07 106.31 60.36 104.39 60.36ZM125.831 43.62C127.331 43.62 128.691 43.97 129.911 44.67C131.151 45.35 132.121 46.32 132.821 47.58C133.521 48.82 133.871 50.27 133.871 51.93C133.871 53.59 133.521 55.05 132.821 56.31C132.121 57.55 131.151 58.52 129.911 59.22C128.691 59.9 127.331 60.24 125.831 60.24C123.771 60.24 122.151 59.59 120.971 58.29V65.82H116.291V43.86H120.761V45.72C121.921 44.32 123.611 43.62 125.831 43.62ZM125.021 56.4C126.221 56.4 127.201 56 127.961 55.2C128.741 54.38 129.131 53.29 129.131 51.93C129.131 50.57 128.741 49.49 127.961 48.69C127.201 47.87 126.221 47.46 125.021 47.46C123.821 47.46 122.831 47.87 122.051 48.69C121.291 49.49 120.911 50.57 120.911 51.93C120.911 53.29 121.291 54.38 122.051 55.2C122.831 56 123.821 56.4 125.021 56.4ZM137.004 37.74H141.684V60H137.004V37.74Z" fill="#474DBB"/>
<rect x="148.05" y="34" width="4.68" height="26" fill="#474DBB"/>
<rect x="160.72" y="34" width="4.68" height="7" fill="#474DBB"/>
<rect x="173.39" y="34" width="4.68" height="7" fill="#474DBB"/>
<circle cx="35" cy="35" r="34" stroke="#474DBB" stroke-width="2"/>
<line x1="25.75" y1="14.25" x2="30.25" y2="14.25" stroke="#474DBB" stroke-width="3.5" stroke-linecap="round" stroke-linejoin="bevel"/>
<line x1="23.75" y1="50.25" x2="31.25" y2="50.25" stroke="#474DBB" stroke-width="3.5" stroke-linecap="round" stroke-linejoin="bevel"/>
<line x1="23.75" y1="57.25" x2="32.25" y2="57.25" stroke="#474DBB" stroke-width="3.5" stroke-linecap="round" stroke-linejoin="bevel"/>
<line x1="42.75" y1="57.25" x2="46.25" y2="57.25" stroke="#474DBB" stroke-width="3.5" stroke-linecap="round" stroke-linejoin="bevel"/>
<line x1="23.75" y1="43.25" x2="30.25" y2="43.25" stroke="#474DBB" stroke-width="3.5" stroke-linecap="round" stroke-linejoin="bevel"/>
<line x1="42.75" y1="43.25" x2="46.25" y2="43.25" stroke="#474DBB" stroke-width="3.5" stroke-linecap="round" stroke-linejoin="bevel"/>
<line x1="42.75" y1="50.25" x2="46.25" y2="50.25" stroke="#474DBB" stroke-width="3.5" stroke-linecap="round" stroke-linejoin="bevel"/>
<line x1="38.75" y1="23.25" x2="45.25" y2="23.25" stroke="#474DBB" stroke-width="3.5" stroke-linecap="round" stroke-linejoin="bevel"/>
<line x1="24.75" y1="23.25" x2="32.25" y2="23.25" stroke="#474DBB" stroke-width="3.5" stroke-linecap="round" stroke-linejoin="bevel"/>
<line x1="36.75" y1="14.25" x2="43.05" y2="14.25" stroke="#474DBB" stroke-width="3.5" stroke-linecap="round" stroke-linejoin="bevel"/>
<line x1="31.4203" y1="16.9734" x2="32.8569" y2="7.83262" stroke="#474DBB" stroke-width="2" stroke-linecap="round" stroke-linejoin="bevel"/>
<line x1="34.2653" y1="24.1636" x2="31.5974" y2="16.7447" stroke="#474DBB" stroke-width="2" stroke-linecap="round" stroke-linejoin="bevel"/>
<line x1="33.1386" y1="32.8784" x2="34.2028" y2="24.7697" stroke="#474DBB" stroke-width="2" stroke-linecap="round" stroke-linejoin="bevel"/>
<line x1="35.2203" y1="16.9734" x2="36.6569" y2="7.83262" stroke="#474DBB" stroke-width="2" stroke-linecap="round" stroke-linejoin="bevel"/>
<line x1="38.0653" y1="24.1636" x2="35.3974" y2="16.7447" stroke="#474DBB" stroke-width="2" stroke-linecap="round" stroke-linejoin="bevel"/>
<line x1="36.9386" y1="32.8784" x2="38.0028" y2="24.7697" stroke="#474DBB" stroke-width="2" stroke-linecap="round" stroke-linejoin="bevel"/>
<line x1="24.7638" y1="34.6868" x2="19.6868" y2="33.2362" stroke="#474DBB" stroke-width="2" stroke-linecap="round" stroke-linejoin="bevel"/>
<line x1="33.2155" y1="33.1767" x2="25.1767" y2="34.7845" stroke="#474DBB" stroke-width="2" stroke-linecap="round" stroke-linejoin="bevel"/>
<line x1="24.7638" y1="38.6868" x2="19.6868" y2="37.2362" stroke="#474DBB" stroke-width="2" stroke-linecap="round" stroke-linejoin="bevel"/>
<line x1="33.2155" y1="37.1767" x2="25.1767" y2="38.7845" stroke="#474DBB" stroke-width="2" stroke-linecap="round" stroke-linejoin="bevel"/>
<line x1="45.2362" y1="35.3132" x2="50.3132" y2="36.7638" stroke="#474DBB" stroke-width="2" stroke-linecap="round" stroke-linejoin="bevel"/>
<line x1="36.7845" y1="36.8233" x2="44.8233" y2="35.2155" stroke="#474DBB" stroke-width="2" stroke-linecap="round" stroke-linejoin="bevel"/>
<line x1="19" y1="7" x2="19" y2="33" stroke="#474DBB" stroke-width="2" stroke-linecap="round" stroke-linejoin="bevel"/>
<line x1="19" y1="37" x2="19" y2="63" stroke="#474DBB" stroke-width="2" stroke-linecap="round" stroke-linejoin="bevel"/>
<line x1="51" y1="37" x2="51" y2="63" stroke="#474DBB" stroke-width="2" stroke-linecap="round" stroke-linejoin="bevel"/>
<line x1="51" y1="7" x2="51" y2="33" stroke="#474DBB" stroke-width="2" stroke-linecap="round" stroke-linejoin="bevel"/>
<line x1="37" y1="63" x2="51" y2="63" stroke="#474DBB" stroke-width="2" stroke-linecap="round" stroke-linejoin="bevel"/>
<line x1="19" y1="63" x2="33" y2="63" stroke="#474DBB" stroke-width="2" stroke-linecap="round" stroke-linejoin="bevel"/>
<line x1="19" y1="7" x2="33" y2="7" stroke="#474DBB" stroke-width="2" stroke-linecap="round" stroke-linejoin="bevel"/>
<line x1="37" y1="7" x2="51" y2="7" stroke="#474DBB" stroke-width="2" stroke-linecap="round" stroke-linejoin="bevel"/>
<line x1="35.195" y1="45.8372" x2="36.8372" y2="36.805" stroke="#474DBB" stroke-width="2" stroke-linecap="round" stroke-linejoin="bevel"/>
<line x1="38.0653" y1="54.1636" x2="35.3974" y2="46.7447" stroke="#474DBB" stroke-width="2" stroke-linecap="round" stroke-linejoin="bevel"/>
<line x1="36.9386" y1="62.8784" x2="38.0028" y2="54.7697" stroke="#474DBB" stroke-width="2" stroke-linecap="round" stroke-linejoin="bevel"/>
<line x1="31.2404" y1="46.959" x2="32.8425" y2="37.8125" stroke="#474DBB" stroke-width="2" stroke-linecap="round" stroke-linejoin="bevel"/>
<line x1="34.0539" y1="54.1884" x2="31.4222" y2="47.2908" stroke="#474DBB" stroke-width="2" stroke-linecap="round" stroke-linejoin="bevel"/>
<line x1="32.9386" y1="62.8784" x2="34.0028" y2="54.7697" stroke="#474DBB" stroke-width="2" stroke-linecap="round" stroke-linejoin="bevel"/>
<line x1="45.2362" y1="31.3132" x2="50.3132" y2="32.7638" stroke="#474DBB" stroke-width="2" stroke-linecap="round" stroke-linejoin="bevel"/>
<line x1="36.7845" y1="32.8233" x2="44.8233" y2="31.2155" stroke="#474DBB" stroke-width="2" stroke-linecap="round" stroke-linejoin="bevel"/>
</g>
<defs>
<filter id="filter0_d" x="0" y="0" width="222.33" height="77" filterUnits="userSpaceOnUse" color-interpolation-filters="sRGB">
<feFlood flood-opacity="0" result="BackgroundImageFix"/>
<feColorMatrix in="SourceAlpha" type="matrix" values="0 0 0 0 0 0 0 0 0 0 0 0 0 0 0 0 0 0 127 0"/>
<feOffset dx="6" dy="5"/>
<feGaussianBlur stdDeviation="1"/>
<feColorMatrix type="matrix" values="0 0 0 0 0 0 0 0 0 0 0 0 0 0 0 0 0 0 0.25 0"/>
<feBlend mode="normal" in2="BackgroundImageFix" result="effect1_dropShadow"/>
<feBlend mode="normal" in="SourceGraphic" in2="effect1_dropShadow" result="shape"/>
</filter>
</defs>
</svg>
