<svg width="121" height="58" viewBox="0 0 121 58" fill="none" xmlns="http://www.w3.org/2000/svg">
    <path
        d="M42.21 15.08C43.41 15.46 44.35 16.1 45.03 17C45.71 17.88 46.05 18.97 46.05 20.27C46.05 22.11 45.33 23.53 43.89 24.53C42.47 25.51 40.39 26 37.65 26H26.79V5H37.05C39.61 5 41.57 5.49 42.93 6.47C44.31 7.45 45 8.78 45 10.46C45 11.48 44.75 12.39 44.25 13.19C43.77 13.99 43.09 14.62 42.21 15.08ZM31.62 8.66V13.61H36.45C37.65 13.61 38.56 13.4 39.18 12.98C39.8 12.56 40.11 11.94 40.11 11.12C40.11 10.3 39.8 9.69 39.18 9.29C38.56 8.87 37.65 8.66 36.45 8.66H31.62ZM37.29 22.34C38.57 22.34 39.53 22.13 40.17 21.71C40.83 21.29 41.16 20.64 41.16 19.76C41.16 18.02 39.87 17.15 37.29 17.15H31.62V22.34H37.29ZM53.0474 9.86H57.7274V26H53.0474V9.86ZM55.3874 7.61C54.5274 7.61 53.8274 7.36 53.2874 6.86C52.7474 6.36 52.4774 5.74 52.4774 5C52.4774 4.26 52.7474 3.64 53.2874 3.14C53.8274 2.64 54.5274 2.39 55.3874 2.39C56.2474 2.39 56.9474 2.63 57.4874 3.11C58.0274 3.59 58.2974 4.19 58.2974 4.91C58.2974 5.69 58.0274 6.34 57.4874 6.86C56.9474 7.36 56.2474 7.61 55.3874 7.61ZM65.7189 3.74H70.3989V26H65.7189V3.74ZM78.3903 3.74H83.0703V26H78.3903V3.74Z"
        fill="#474DBB" />
    <path
        d="M75.57 51.22C75.11 51.56 74.54 51.82 73.86 52C73.2 52.16 72.5 52.24 71.76 52.24C69.84 52.24 68.35 51.75 67.29 50.77C66.25 49.79 65.73 48.35 65.73 46.45V39.82H63.24V36.22H65.73V32.29H70.41V36.22H74.43V39.82H70.41V46.39C70.41 47.07 70.58 47.6 70.92 47.98C71.28 48.34 71.78 48.52 72.42 48.52C73.16 48.52 73.79 48.32 74.31 47.92L75.57 51.22ZM88.2555 51.22C87.7955 51.56 87.2255 51.82 86.5455 52C85.8855 52.16 85.1855 52.24 84.4455 52.24C82.5255 52.24 81.0355 51.75 79.9755 50.77C78.9355 49.79 78.4155 48.35 78.4155 46.45V39.82H75.9255V36.22H78.4155V32.29H83.0955V36.22H87.1155V39.82H83.0955V46.39C83.0955 47.07 83.2655 47.6 83.6055 47.98C83.9655 48.34 84.4655 48.52 85.1055 48.52C85.8455 48.52 86.4755 48.32 86.9955 47.92L88.2555 51.22ZM106.195 43.99C106.195 44.05 106.165 44.47 106.105 45.25H93.8946C94.1146 46.25 94.6346 47.04 95.4546 47.62C96.2746 48.2 97.2946 48.49 98.5146 48.49C99.3546 48.49 100.095 48.37 100.735 48.13C101.395 47.87 102.005 47.47 102.565 46.93L105.055 49.63C103.535 51.37 101.315 52.24 98.3946 52.24C96.5746 52.24 94.9646 51.89 93.5646 51.19C92.1646 50.47 91.0846 49.48 90.3246 48.22C89.5646 46.96 89.1846 45.53 89.1846 43.93C89.1846 42.35 89.5546 40.93 90.2946 39.67C91.0546 38.39 92.0846 37.4 93.3846 36.7C94.7046 35.98 96.1746 35.62 97.7946 35.62C99.3746 35.62 100.805 35.96 102.085 36.64C103.365 37.32 104.365 38.3 105.085 39.58C105.825 40.84 106.195 42.31 106.195 43.99ZM97.8246 39.16C96.7646 39.16 95.8746 39.46 95.1546 40.06C94.4346 40.66 93.9946 41.48 93.8346 42.52H101.785C101.625 41.5 101.185 40.69 100.465 40.09C99.7446 39.47 98.8646 39.16 97.8246 39.16ZM113.78 37.99C114.34 37.21 115.09 36.62 116.03 36.22C116.99 35.82 118.09 35.62 119.33 35.62V39.94C118.81 39.9 118.46 39.88 118.28 39.88C116.94 39.88 115.89 40.26 115.13 41.02C114.37 41.76 113.99 42.88 113.99 44.38V52H109.31V35.86H113.78V37.99Z"
        fill="#474DBB" />
    <path
        d="M9.39 52.36C7.73 52.36 6.12 52.14 4.56 51.7C3.02 51.24 1.78 50.65 0.84 49.93L2.49 46.27C3.39 46.93 4.46 47.46 5.7 47.86C6.94 48.26 8.18 48.46 9.42 48.46C10.8 48.46 11.82 48.26 12.48 47.86C13.14 47.44 13.47 46.89 13.47 46.21C13.47 45.71 13.27 45.3 12.87 44.98C12.49 44.64 11.99 44.37 11.37 44.17C10.77 43.97 9.95 43.75 8.91 43.51C7.31 43.13 6 42.75 4.98 42.37C3.96 41.99 3.08 41.38 2.34 40.54C1.62 39.7 1.26 38.58 1.26 37.18C1.26 35.96 1.59 34.86 2.25 33.88C2.91 32.88 3.9 32.09 5.22 31.51C6.56 30.93 8.19 30.64 10.11 30.64C11.45 30.64 12.76 30.8 14.04 31.12C15.32 31.44 16.44 31.9 17.4 32.5L15.9 36.19C13.96 35.09 12.02 34.54 10.08 34.54C8.72 34.54 7.71 34.76 7.05 35.2C6.41 35.64 6.09 36.22 6.09 36.94C6.09 37.66 6.46 38.2 7.2 38.56C7.96 38.9 9.11 39.24 10.65 39.58C12.25 39.96 13.56 40.34 14.58 40.72C15.6 41.1 16.47 41.7 17.19 42.52C17.93 43.34 18.3 44.45 18.3 45.85C18.3 47.05 17.96 48.15 17.28 49.15C16.62 50.13 15.62 50.91 14.28 51.49C12.94 52.07 11.31 52.36 9.39 52.36ZM30.8309 35.62C32.3309 35.62 33.6909 35.97 34.9109 36.67C36.1509 37.35 37.1209 38.32 37.8209 39.58C38.5209 40.82 38.8709 42.27 38.8709 43.93C38.8709 45.59 38.5209 47.05 37.8209 48.31C37.1209 49.55 36.1509 50.52 34.9109 51.22C33.6909 51.9 32.3309 52.24 30.8309 52.24C28.7709 52.24 27.1509 51.59 25.9709 50.29V57.82H21.2909V35.86H25.7609V37.72C26.9209 36.32 28.6109 35.62 30.8309 35.62ZM30.0209 48.4C31.2209 48.4 32.2009 48 32.9609 47.2C33.7409 46.38 34.1309 45.29 34.1309 43.93C34.1309 42.57 33.7409 41.49 32.9609 40.69C32.2009 39.87 31.2209 39.46 30.0209 39.46C28.8209 39.46 27.8309 39.87 27.0509 40.69C26.2909 41.49 25.9109 42.57 25.9109 43.93C25.9109 45.29 26.2909 46.38 27.0509 47.2C27.8309 48 28.8209 48.4 30.0209 48.4ZM42.0038 29.74H46.6838V52H42.0038V29.74Z"
        fill="#474DBB" />
    <rect x="53.05" y="26" width="4.68" height="26" fill="#474DBB" />
    <rect x="65.72" y="26" width="4.68" height="7" fill="#474DBB" />
    <rect x="78.39" y="26" width="4.68" height="7" fill="#474DBB" />
</svg>
    